<svg width="109" height="51" viewBox="0 0 109 51" fill="none" xmlns="http://www.w3.org/2000/svg">
    <path d="M11.8848 48.95L16.4848 48.2V11.8L11.8848 11.1V10H27.5848C32.5181 10 36.1848 11.05 38.5848 13.15C40.9848 15.25 42.1848 18.2833 42.1848 22.25C42.1848 26.2167 40.9848 29.25 38.5848 31.35C36.1848 33.45 32.5181 34.5 27.5848 34.5H21.9848V48.2L26.5848 48.95V50H11.8848V48.95ZM26.8848 33.3C33.0514 33.3 36.1348 29.95 36.1348 23.25V21.25C36.1348 14.5833 33.0514 11.25 26.8848 11.25H21.9848V33.3H26.8848Z"
          fill="white"/>
    <path d="M16.4749 48.2065L16.3848 35H21.9796V41.5875V44.9102V48.1786L27.0848 49.0217V50H10.8848V49.0217L16.4749 48.2065Z" fill="#FFB633"/>
    <path d="M67.6848 50.5L52.7848 11.8V46.95L57.5848 48.95V50H46.8848V48.95L51.5848 46.95V11.8L46.9848 11.1V10H58.0348L70.5848 42.1L83.3848 10H93.4848V11.1L88.8848 11.8V48.2L93.4848 48.95V50H78.7848V48.95L83.3848 48.2V13.3L68.5848 50.5H67.6848Z"
          fill="white"/>
    <path d="M51.3668 47V35H52.8608V47L57.5848 48.9648V50L46.8848 50V49L51.3668 47Z" fill="#FFB633"/>
    <path d="M61.8848 35H67.8848L70.5399 41.6379L73.3848 35H74.8848L68.8723 50.5H67.7348L64.8848 43L61.8848 35Z" fill="#FFB633"/>
    <path d="M83.4749 48.2065L83.3848 35H88.9796V41.5875V44.9102V48.1786L94.0848 49.0217V50H77.8848V49.0217L83.4749 48.2065Z" fill="#FFB633"/>
    <path d="M41.8425 37.2758C16.7127 43.2514 3.79779 34.3406 0.279297 28.9298C3.46178 35.2506 12.5742 42.4567 16.7542 44.0274C29.8632 47.5943 39.8081 43.7879 68.7413 36.8466C91.8879 31.2935 103.902 39.9424 107.016 44.961C104.884 41.329 99.0378 33.9636 92.2856 32.3111C81.5459 29.6826 73.8074 29.675 41.8425 37.2758Z"
          fill="#FFB633"/>
    <path d="M42.8546 30.0702C17.6244 35.6062 4.86689 26.4714 1.44336 21C4.51504 27.3754 13.5003 34.7394 17.6523 36.3829C30.697 40.178 40.7068 36.5458 69.7568 30.1104C92.9967 24.9622 104.858 33.8195 107.884 38.8916C105.816 35.223 100.099 27.7567 93.3766 25.9865C82.6845 23.171 74.9472 23.0284 42.8546 30.0702Z"
          fill="white"/>
</svg>
