<svg width="24" height="17" viewBox="0 0 24 17" fill="none" xmlns="http://www.w3.org/2000/svg">
<path d="M6.96063 0.131836C7.66713 0.131836 8.30286 0.196924 8.88581 0.329651C9.46517 0.461102 9.95936 0.678059 10.3768 0.977972C10.7882 1.27788 11.1097 1.67607 11.3412 2.17634C11.5655 2.67024 11.677 3.28793 11.677 4.01793C11.677 4.80919 11.5091 5.47027 11.172 5.99735C10.8326 6.52571 10.3324 6.95835 9.66548 7.29272C10.5735 7.57221 11.2464 8.06101 11.6926 8.75527C12.1412 9.45592 12.3607 10.2944 12.3607 11.2771C12.3607 12.0747 12.218 12.7601 11.9313 13.3356C11.6551 13.9026 11.2543 14.3904 10.763 14.7573C10.2542 15.1344 9.68576 15.411 9.08493 15.5741C8.45497 15.7501 7.80625 15.8384 7.15495 15.837H0V0.131836H6.96063ZM6.53961 6.47721C7.11537 6.47721 7.59276 6.33172 7.9694 6.03692C8.34364 5.74594 8.52477 5.26608 8.52477 4.60882C8.52477 4.24382 8.46359 3.94264 8.34364 3.70653C8.22678 3.47939 8.05383 3.29052 7.84346 3.16031C7.62327 3.02137 7.38025 2.92825 7.12736 2.88592C6.85171 2.83123 6.57171 2.80515 6.29132 2.80807H3.25061V6.47721H6.53961ZM6.72074 13.1633C7.041 13.1633 7.34567 13.134 7.63235 13.0651C7.92142 12.9987 8.17811 12.8915 8.39642 12.732C8.61473 12.5788 8.79465 12.3708 8.9242 12.1054C9.05494 11.8425 9.11851 11.4991 9.11851 11.0869C9.11851 10.2778 8.90381 9.70223 8.47919 9.35382C8.05337 9.00924 7.48241 8.83823 6.78311 8.83823H3.25061V13.1646H6.72074V13.1633ZM16.9944 13.111C17.4346 13.5679 18.0691 13.7976 18.8943 13.7976C19.4857 13.7976 19.9967 13.6381 20.4273 13.3216C20.8519 13.0038 21.111 12.6643 21.2106 12.3134H23.7955C23.3804 13.6815 22.7507 14.6591 21.8895 15.2474C21.039 15.8383 20.0039 16.1318 18.7948 16.1318C17.9527 16.1318 17.1947 15.9876 16.5158 15.7017C15.8641 15.4317 15.2752 15.0146 14.7897 14.4791C14.3122 13.9312 13.943 13.2867 13.7042 12.5839C13.4416 11.8069 13.3116 10.9861 13.3203 10.1604C13.3203 9.31043 13.4535 8.51534 13.715 7.78151C13.9632 7.07217 14.3443 6.42391 14.8353 5.87611C15.3211 5.3401 15.8968 4.91767 16.5673 4.60755C17.2724 4.29204 18.0311 4.13476 18.796 4.14556C19.7004 4.14556 20.4909 4.33188 21.1698 4.70709C21.8282 5.06526 22.399 5.58175 22.8371 6.21559C23.2725 6.84477 23.5831 7.56583 23.7763 8.37368C23.9694 9.18025 24.0366 10.0226 23.9814 10.9044H16.2675C16.2687 11.8029 16.5529 12.6541 16.9944 13.111ZM20.3673 7.13702C20.0183 6.72608 19.4281 6.50401 18.706 6.50401C18.237 6.50401 17.8496 6.58697 17.5377 6.75798C17.2526 6.91122 16.9996 7.12439 16.794 7.38461C16.6135 7.62086 16.4797 7.89347 16.4006 8.18608C16.3314 8.43007 16.2868 8.68119 16.2675 8.93522H21.0438C20.9743 8.13885 20.7176 7.55052 20.3673 7.13702ZM15.6677 1.186H21.652V2.73661H15.6677V1.186Z" fill="white"/>
</svg>
