<svg width="24" height="25" viewBox="0 0 24 25" fill="none" xmlns="http://www.w3.org/2000/svg">
<path d="M15.84 12.1318C15.84 12.8913 15.6148 13.6337 15.1928 14.2652C14.7709 14.8967 14.1712 15.3889 13.4695 15.6795C12.7678 15.9702 11.9957 16.0462 11.2509 15.8981C10.506 15.7499 9.82174 15.3842 9.28471 14.8471C8.74768 14.3101 8.38195 13.6259 8.23378 12.881C8.08562 12.1361 8.16166 11.364 8.4523 10.6623C8.74294 9.96066 9.23513 9.36094 9.86661 8.93899C10.4981 8.51705 11.2405 8.29184 12 8.29184C13.0175 8.295 13.9923 8.70059 14.7118 9.42004C15.4312 10.1395 15.8368 11.1144 15.84 12.1318V12.1318ZM24 6.85184V17.4118C24 19.1941 23.292 20.9033 22.0318 22.1636C20.7715 23.4238 19.0623 24.1318 17.28 24.1318H6.72C4.93775 24.1318 3.22849 23.4238 1.96824 22.1636C0.707998 20.9033 0 19.1941 0 17.4118V6.85184C0 5.06958 0.707998 3.36032 1.96824 2.10008C3.22849 0.839834 4.93775 0.131836 6.72 0.131836H17.28C19.0623 0.131836 20.7715 0.839834 22.0318 2.10008C23.292 3.36032 24 5.06958 24 6.85184V6.85184ZM17.76 12.1318C17.76 10.9926 17.4222 9.87898 16.7893 8.93175C16.1563 7.98452 15.2568 7.24625 14.2043 6.81029C13.1518 6.37433 11.9936 6.26026 10.8763 6.48251C9.75895 6.70476 8.73262 7.25335 7.92706 8.0589C7.12151 8.86445 6.57293 9.89078 6.35068 11.0081C6.12843 12.1254 6.24249 13.2836 6.67845 14.3361C7.11441 15.3886 7.85269 16.2882 8.79991 16.9211C9.74714 17.554 10.8608 17.8918 12 17.8918C13.5276 17.8918 14.9927 17.285 16.0729 16.2048C17.1531 15.1246 17.76 13.6595 17.76 12.1318ZM19.68 5.89184C19.68 5.60703 19.5955 5.32862 19.4373 5.09182C19.2791 4.85501 19.0542 4.67044 18.7911 4.56145C18.5279 4.45246 18.2384 4.42394 17.9591 4.4795C17.6797 4.53507 17.4232 4.67221 17.2218 4.8736C17.0204 5.07499 16.8832 5.33157 16.8277 5.61091C16.7721 5.89024 16.8006 6.17977 16.9096 6.4429C17.0186 6.70603 17.2032 6.93092 17.44 7.08915C17.6768 7.24738 17.9552 7.33184 18.24 7.33184C18.6219 7.33184 18.9882 7.18012 19.2582 6.91007C19.5283 6.64002 19.68 6.27375 19.68 5.89184Z" fill="white"/>
</svg>
