<svg width="24" height="25" viewBox="0 0 24 25" fill="none" xmlns="http://www.w3.org/2000/svg">
<path d="M24 2.95537C23.1166 3.44948 22.1644 3.77419 21.1778 3.92948C22.1874 3.18125 22.9675 1.99537 23.3346 0.569483C22.3824 1.27537 21.327 1.76948 20.2141 2.05184C19.3078 0.837718 18.0344 0.131836 16.5889 0.131836C13.8929 0.131836 11.6902 2.84242 11.6902 6.18831C11.6902 6.66831 11.7361 7.13419 11.8164 7.57184C7.73231 7.31772 4.0956 4.9036 1.67495 1.24713C1.25048 2.13654 1.00956 3.18125 1.00956 4.28242C1.00956 6.38595 1.86998 8.24948 3.20077 9.30831C2.38623 9.30831 1.62906 9.02595 0.963671 8.60242V8.64478C0.963671 11.5812 2.66157 14.0377 4.91013 14.5883C4.18822 14.8314 3.43032 14.8653 2.69599 14.6871C3.00758 15.8906 3.61782 16.9437 4.44094 17.6983C5.26405 18.4529 6.25864 18.8712 7.2849 18.8942C5.54527 20.5889 3.38891 21.505 1.17017 21.4918C0.780115 21.4918 0.390057 21.4636 0 21.4071C2.17973 23.1295 4.77247 24.1318 7.54876 24.1318C16.5889 24.1318 21.5564 14.8989 21.5564 6.89419C21.5564 6.62595 21.5564 6.37184 21.5449 6.1036C22.5086 5.25654 23.3346 4.1836 24 2.95537Z" fill="white"/>
</svg>
