<svg width="100" height="100" viewBox="0 0 100 100" fill="none" xmlns="http://www.w3.org/2000/svg">
<circle cx="50" cy="50" r="49" stroke="white" stroke-width="2"/>
<path d="M48.4499 31.3847C48.4495 32.408 48.0717 33.3957 47.3895 34.1584C46.7069 34.9211 45.767 35.4055 44.7499 35.5195C44.4427 35.5529 44.1321 35.5529 43.8249 35.5195C42.7136 35.3873 41.7024 34.8133 41.0189 33.9268C40.3359 33.0402 40.0386 31.9161 40.1943 30.8078C40.3496 29.6995 40.9446 28.7005 41.8452 28.0361V20.257C41.8452 19.9803 41.9575 19.716 42.1562 19.524C42.3552 19.332 42.6236 19.2292 42.8999 19.2395H45.7674C46.3273 19.2444 46.7799 19.697 46.7849 20.257V28.027C47.842 28.8178 48.4602 30.0644 48.4499 31.3847H48.4499Z" fill="white"/>
<path d="M43.1686 36.9441L33.6502 57.2846L33.0304 56.998L30.5143 62.4737L27.7393 65.4985L28.2757 61.4285L30.8752 55.9248L30.2554 55.6382L39.8849 34.9277C40.7108 35.9622 41.8724 36.6753 43.1686 36.9441L43.1686 36.9441Z" fill="white"/>
<path d="M57.5248 53.6862L58.5052 55.7765L55.0183 57.4047L45.4722 36.9437C46.778 36.674 47.9465 35.9534 48.7745 34.9087L55.9061 50.1897L62.8064 46.9708L64.4341 50.4581L57.5248 53.6862Z" fill="white"/>
<path d="M56.1079 40.9114L56.947 40.522C57.6651 40.1883 58.5178 40.5001 58.8511 41.2186L59.8484 43.3663L56.409 44.9636L55.4117 42.8159C55.2515 42.4711 55.235 42.0767 55.3655 41.7195C55.496 41.3623 55.7631 41.0716 56.108 40.9114L56.1079 40.9114Z" fill="white"/>
<path d="M66.8021 62.7701L67.1721 58.6538L63.4258 60.3927L66.8021 62.7701Z" fill="white"/>
<path d="M60.2656 53.6692L64.0213 51.918L66.8554 57.9957L63.0997 59.747L60.2656 53.6692Z" fill="white"/>
<path d="M56.5586 45.6602L60.3173 43.9155L61.4504 46.3569L57.6917 48.1016L56.5586 45.6602Z" fill="white"/>
<path d="M29.3675 68.7915H27.7397C27.7397 70.4751 29.451 71.9456 32.772 73.1481L33.3265 71.6499C30.8752 70.7249 29.3767 69.6702 29.3677 68.7915H29.3675Z" fill="white"/>
<path d="M38.7656 74.7117C40.6156 75.0541 42.6878 75.3407 44.8429 75.5442L45.0003 73.9165C42.8819 73.7129 40.884 73.4449 39.0617 73.1025L38.7656 74.7117Z" fill="white"/>
<path d="M63.0186 73.9167L63.1759 75.5445C65.3407 75.3409 67.3846 75.0544 69.2532 74.712L68.9572 73.1118C67.1258 73.4356 65.0999 73.7131 63.0186 73.9166L63.0186 73.9167Z" fill="white"/>
<path d="M69.2165 62.8535L68.9204 64.4537C70.8687 64.789 72.7864 65.2808 74.6554 65.9242L75.2104 64.3889C73.2571 63.7166 71.2527 63.2033 69.2165 62.8536L69.2165 62.8535Z" fill="white"/>
<path d="M51.0033 74.2866L50.957 75.9144H54.0004H57.062L57.0158 74.2866C55.0365 74.342 52.983 74.342 51.0033 74.2866Z" fill="white"/>
<path d="M80.2605 68.7369H78.6327C78.6327 69.6619 77.1618 70.6794 74.6924 71.5767L75.2474 73.112C78.5774 71.9004 80.261 70.4386 80.261 68.7368L80.2605 68.7369Z" fill="white"/>
</svg>
