<svg width="100" height="100" viewBox="0 0 100 100" fill="none" xmlns="http://www.w3.org/2000/svg">
<path d="M82.3545 45.4513V41.6342H63.8169C69.2652 46.3314 73.0167 54.9233 73.3807 64.8638C74.8887 65.6315 75.9831 67.7496 75.9831 70.2632C75.9831 73.42 74.2682 75.9888 72.1606 75.9888C70.053 75.9888 68.338 73.42 68.338 70.2632C68.338 67.8067 69.3818 65.7243 70.8341 64.9134C70.3017 51.9473 63.1099 41.6357 54.322 41.6357H46.6768C37.8888 41.6357 30.6977 51.9477 30.1647 64.9134C31.617 65.7245 32.6609 67.8069 32.6609 70.2632C32.6609 73.42 30.9459 75.9888 28.8383 75.9888C26.7307 75.9888 25.0157 73.42 25.0157 70.2632C25.0157 67.7498 26.1101 65.6316 27.6175 64.8638C27.9833 54.9242 31.7331 46.3323 37.1814 41.6342H18.6452V45.4513H11V34.0001H18.6452V37.8171H82.3548V34.0001H90V45.4513H82.3545Z" fill="white"/>
<path d="M57.5845 61.8081C55.5207 64.5891 54.3228 68.5569 54.3228 72.7821V73.5361H46.6777V72.7821C46.6777 68.5543 45.4797 64.5865 43.416 61.8081L49.226 51.6588V69.7193H51.7744V51.6588L57.5845 61.8081Z" fill="white"/>
<circle cx="50" cy="50" r="49" stroke="white" stroke-width="2"/>
</svg>
