<svg width="100" height="100" viewBox="0 0 100 100" fill="none" xmlns="http://www.w3.org/2000/svg">
<path d="M35.4278 40.5924C35.4322 41.7452 35.8507 42.8575 36.605 43.7214C35.443 44.0833 34.4256 44.8124 33.7026 45.8023C32.9793 46.7918 32.5885 47.9899 32.5869 49.221V53.0557C32.5869 53.5641 32.7863 54.0521 33.1418 54.4116C33.4969 54.7711 33.9785 54.9733 34.481 54.9733H40.2483C40.1932 55.2899 40.1647 55.6105 40.1631 55.9319V59.7667C40.1631 60.2755 40.3625 60.763 40.7176 61.1225C41.0727 61.4824 41.5547 61.6843 42.0568 61.6843H53.4209C53.9235 61.6843 54.4051 61.4824 54.7602 61.1225C55.1157 60.763 55.315 60.2755 55.315 59.7667V55.9319C55.3131 55.6105 55.2845 55.2899 55.2298 54.9733H60.9971C61.4993 54.9733 61.9812 54.7711 62.3363 54.4116C62.6915 54.052 62.8912 53.5641 62.8912 53.0557V49.221C62.8897 47.9899 62.4985 46.7918 61.7755 45.8023C61.0526 44.8124 60.0352 44.0834 58.8731 43.7214C59.6785 42.7933 60.099 41.5859 60.0467 40.3512C59.9944 39.1169 59.4728 37.9505 58.5913 37.0959C57.7102 36.2408 56.5366 35.7637 55.3159 35.7637C54.0955 35.7637 52.9219 36.2408 52.0405 37.0959C51.159 37.9505 50.6378 39.117 50.5855 40.3512C50.5327 41.5859 50.9533 42.7932 51.759 43.7214C51.543 43.7884 51.3309 43.8686 51.1244 43.9613C50.237 43.0324 49.0155 42.5076 47.7389 42.5076C46.4626 42.5076 45.2407 43.0325 44.3533 43.9613C44.1472 43.8678 43.9351 43.7876 43.7191 43.7214C44.7361 42.5377 45.1155 40.9239 44.7334 39.4027C44.3513 37.8819 43.2565 36.6473 41.8044 36.0992C40.3518 35.551 38.7263 35.7589 37.4541 36.6553C36.1818 37.5517 35.4244 39.0231 35.4279 40.5924L35.4278 40.5924ZM53.4206 59.7663H42.0565V55.9315C42.0565 54.9143 42.4557 53.9389 43.1664 53.2199C43.8766 52.5008 44.8401 52.0967 45.8448 52.0967H49.6327C50.6375 52.0967 51.601 52.5008 52.3112 53.2199C53.0215 53.939 53.4206 54.9144 53.4206 55.9315V59.7663ZM55.3148 37.7152V37.7156C56.0682 37.7156 56.7908 38.0185 57.3239 38.5578C57.8566 39.0971 58.1558 39.829 58.1558 40.5918C58.1558 41.3546 57.8566 42.0861 57.3239 42.6253C56.7908 43.1646 56.0683 43.468 55.3148 43.468C54.5613 43.468 53.8388 43.1646 53.3057 42.6253C52.773 42.0861 52.4737 41.3546 52.4737 40.5918C52.4737 39.829 52.773 39.0971 53.3057 38.5578C53.8388 38.0185 54.5613 37.7156 55.3148 37.7156V37.7152ZM53.4206 45.3851H57.2089C58.2133 45.3851 59.1769 45.7892 59.8874 46.5087C60.5977 47.2278 60.9968 48.2032 60.9968 49.2203V53.0551H54.5431C53.8246 51.798 52.6644 50.8611 51.2939 50.4321C51.8639 49.7885 52.246 48.9972 52.3978 48.1466C52.5492 47.2959 52.4648 46.4192 52.1528 45.6143C52.5595 45.4647 52.9883 45.3872 53.4207 45.3852L53.4206 45.3851ZM47.7386 44.4266C48.4921 44.4266 49.215 44.7295 49.7477 45.2688C50.2804 45.8085 50.5796 46.54 50.5796 47.3028C50.5796 48.0656 50.2804 48.797 49.7477 49.3367C49.215 49.876 48.4921 50.179 47.7386 50.179C46.9851 50.179 46.2626 49.876 45.7299 49.3367C45.1972 48.7971 44.8976 48.0656 44.8976 47.3028C44.8976 46.54 45.1972 45.8085 45.7299 45.2688C46.2626 44.7295 46.9851 44.4266 47.7386 44.4266ZM44.1778 50.4321C42.8072 50.8611 41.6471 51.798 40.9289 53.0551H34.4807V49.2203C34.4807 48.2032 34.8798 47.2278 35.5901 46.5087C36.3003 45.7893 37.2638 45.3851 38.2686 45.3851H42.0564C42.4885 45.3872 42.9169 45.4646 43.3227 45.6143C43.0104 46.4192 42.9252 47.2955 43.0766 48.1465C43.228 48.9972 43.6105 49.7884 44.1808 50.4321L44.1778 50.4321ZM43.0038 40.5918C43.0038 41.3546 42.7042 42.0861 42.1715 42.6253C41.6388 43.1646 40.9163 43.468 40.1628 43.468C39.4093 43.468 38.6864 43.1646 38.1537 42.6253C37.621 42.0861 37.3218 41.3546 37.3218 40.5918C37.3218 39.829 37.621 39.0971 38.1537 38.5578C38.6864 38.0185 39.4093 37.7156 40.1628 37.7156C40.9163 37.7156 41.6388 38.0185 42.1715 38.5578C42.7042 39.0971 43.0038 39.829 43.0038 40.5918Z" fill="white"/>
<path d="M73.0347 68.4495L66.9408 62.2801C70.4275 57.3868 71.9665 51.3434 71.2511 45.3538C70.5353 39.3639 67.6181 33.8664 63.0796 29.9559C58.541 26.0453 52.7139 24.0085 46.7589 24.2508C40.8041 24.4932 35.1574 26.997 30.9436 31.2636C26.7296 35.5305 24.2572 41.2476 24.019 47.2758C23.7808 53.3046 25.7938 59.2037 29.6574 63.7974C33.521 68.3911 38.9518 71.3442 44.868 72.0673C50.7851 72.7908 56.7536 71.2319 61.5864 67.7008L74.4238 80.6971C75.1237 81.4579 76.0996 81.8984 77.1265 81.9173C78.1534 81.9362 79.1443 81.5321 79.8712 80.7975C80.5985 80.0628 80.9996 79.0605 80.983 78.0208C80.9663 76.9812 80.5331 75.9925 79.7829 75.2823L73.0347 68.4495ZM25.9569 48.2627C25.9569 42.4144 28.2518 36.8062 32.3366 32.6707C36.4213 28.5353 41.961 26.2121 47.738 26.2121C53.5148 26.2121 59.0554 28.5353 63.1393 32.6707C67.2241 36.806 69.519 42.4143 69.519 48.2627C69.519 54.111 67.2241 59.7202 63.1393 63.8547C59.0546 67.9893 53.5145 70.3133 47.738 70.3133C41.9632 70.3069 36.4266 67.9813 32.3437 63.8476C28.2601 59.7139 25.9632 54.1087 25.9569 48.2627V48.2627ZM65.7526 63.7941L68.3427 66.4163L65.6673 69.1256L63.0792 66.4986C64.0391 65.6696 64.9329 64.7652 65.7526 63.7941ZM67.0062 70.4815L69.6815 67.7722L71.0224 69.1297L68.347 71.839L67.0062 70.4815ZM78.4281 79.3496V79.3492C78.0682 79.6971 77.5898 79.8901 77.0924 79.8889C76.595 79.8877 76.1174 79.6919 75.7595 79.3428L69.6863 73.1896L72.3597 70.4803L78.4329 76.6287C78.7884 76.989 78.9878 77.4781 78.9866 77.9881C78.985 78.4977 78.7836 78.9856 78.4261 79.3447L78.4281 79.3496Z" fill="white"/>
<path d="M47.7385 28.1287C47.2157 28.1287 46.7916 28.558 46.7916 29.0877C46.7916 29.6169 47.2157 30.0463 47.7385 30.0463C52.2612 30.0483 56.6171 31.7753 59.9376 34.8834C63.259 37.9915 65.3014 42.252 65.6585 46.8165C66.0152 51.3808 64.6605 55.9137 61.8642 59.5118C59.0676 63.1103 55.0344 65.5098 50.5691 66.2325C46.103 66.9551 41.532 65.948 37.7673 63.4112C34.002 60.8749 31.3191 56.9952 30.2529 52.5454C29.1867 48.0956 29.8153 43.4028 32.0138 39.4022C34.2128 35.4009 37.8195 32.3851 42.1163 30.9558C42.6129 30.79 42.8832 30.248 42.7195 29.7452C42.5558 29.242 42.0204 28.9688 41.5233 29.1345C36.7719 30.7147 32.783 34.0491 30.352 38.4737C27.9204 42.8979 27.2249 48.0874 28.4036 53.0077C29.5823 57.9282 32.5494 62.2185 36.7127 65.023C40.8763 67.8282 45.931 68.942 50.8691 68.1427C55.8076 67.3438 60.2673 64.6904 63.3594 60.7111C66.4518 56.7323 67.9499 51.7194 67.5552 46.6722C67.1601 41.6248 64.9013 36.9133 61.2287 33.4766C57.5562 30.0399 52.7393 28.1303 47.7379 28.1279L47.7385 28.1287Z" fill="white"/>
<circle cx="50" cy="50" r="49" stroke="white" stroke-width="2"/>
</svg>
