<svg width="100" height="100" viewBox="0 0 100 100" fill="none" xmlns="http://www.w3.org/2000/svg">
<circle cx="50" cy="50" r="49" stroke="white" stroke-width="2"/>
<path d="M74.7621 85.3822C74.3381 73.094 64.9286 62.7421 52.5523 61.2272L51.6198 61.1432V85.3824H47.3813L47.3808 61.1417L46.4482 61.2257C34.0715 62.7403 24.5776 73.0083 24.2385 85.3807H20C20.3388 74.3554 27.0359 64.2556 37.2083 59.5424L38.9036 58.7851L37.2083 58.0277C27.0361 53.3147 20.3391 43.2991 20 32.1895H24.2385C24.6625 44.4777 34.072 54.8295 46.4482 56.3445L47.3808 56.4284V32.1907H51.6193V56.4299L52.5518 56.346C64.9285 54.8313 74.4224 44.5633 74.7615 32.191H79C78.6612 43.2163 71.9641 53.3161 61.7917 58.0292L60.0964 58.7866L61.7917 59.5439C71.9639 64.2569 78.6609 74.2726 79 85.3822H74.7621Z" fill="white"/>
</svg>
