<svg width="100" height="100" viewBox="0 0 100 100" fill="none" xmlns="http://www.w3.org/2000/svg">
<path d="M30.6362 70.4453H35.4227V75.291H30.6362V70.4453Z" fill="white"/>
<path d="M76.0103 59.4421H59.2461L75.5767 42.9094C76.3166 42.1531 76.7313 41.1315 76.7313 40.0672C76.7313 39.003 76.3166 37.9818 75.5767 37.2254L66.1834 27.7097C65.4359 26.959 64.4259 26.538 63.3731 26.538C62.3204 26.538 61.3103 26.959 60.5629 27.7097L44.2385 44.2363V27.2707C44.2385 26.1996 43.8182 25.172 43.07 24.4144C42.3217 23.6569 41.3066 23.2314 40.2486 23.2314H26.9899C25.9318 23.2314 24.9168 23.6569 24.1685 24.4144C23.4202 25.172 23 26.1996 23 27.2707V76.8977C23 77.9689 23.4203 78.9965 24.1685 79.7541C24.9168 80.5116 25.9318 80.937 26.9899 80.937H76.0101C77.0681 80.937 78.0832 80.5116 78.8315 79.7541C79.5798 78.9965 80 77.9689 80 76.8977V63.4636C79.9956 62.3953 79.573 61.3721 78.8255 60.6182C78.0776 59.8647 77.0653 59.4412 76.0101 59.4412L76.0103 59.4421ZM62.9796 30.1564C63.0842 30.0514 63.2254 29.9914 63.3729 29.989C63.5192 29.989 63.6591 30.0494 63.7605 30.1564L73.1599 39.6721C73.2605 39.7776 73.3173 39.9181 73.3193 40.0646C73.3189 40.2131 73.2617 40.356 73.1599 40.4627L54.4068 59.4417H34.0577L62.9796 30.1564ZM26.9891 26.6943H40.2701C40.4212 26.6943 40.5664 26.7551 40.6733 26.863C40.7803 26.9712 40.8403 27.1182 40.8403 27.2711V47.7052L29.2235 59.4421H26.4191V27.2711C26.4191 26.9523 26.6742 26.6943 26.9891 26.6943ZM76.5793 76.8983C76.5793 77.0513 76.5192 77.1982 76.4127 77.3065C76.3057 77.4144 76.1606 77.4752 76.0095 77.4752H26.9893C26.6744 77.4752 26.4196 77.2171 26.4196 76.8983V63.4642C26.4196 63.1454 26.6744 62.887 26.9893 62.887H76.0095C76.1606 62.887 76.3057 62.9478 76.4127 63.0561C76.5192 63.1643 76.5793 63.3109 76.5793 63.4642V76.8983Z" fill="white"/>
<circle cx="50" cy="50" r="49" stroke="white" stroke-width="2"/>
</svg>
