<svg width="100" height="100" viewBox="0 0 100 100" fill="none" xmlns="http://www.w3.org/2000/svg">
<circle cx="50" cy="50" r="49" stroke="white" stroke-width="2"/>
<path d="M32.5334 56.719H53.955L54.0751 56.0371H32.6536L32.5334 56.719Z" fill="white"/>
<path d="M32.1716 58.7663H53.5932L53.7129 58.084H32.2924L32.1716 58.7663Z" fill="white"/>
<path d="M31.8118 60.8146H53.2323L53.3532 60.1323H31.9317L31.8118 60.8146Z" fill="white"/>
<path d="M31.4502 62.8628H52.8717L52.9915 62.1797H31.5699L31.4502 62.8628Z" fill="white"/>
<path d="M31.0884 64.9101H52.5099L52.6308 64.2271H31.2093L31.0884 64.9101Z" fill="white"/>
<path d="M55.1585 49.894H33.7369L33.6172 50.5763H55.0387L55.1585 49.894Z" fill="white"/>
<path d="M33.3763 51.9414L33.2554 52.6237H54.6769L54.7971 51.9414H33.3763Z" fill="white"/>
<path d="M32.894 54.6716H54.3156L54.4361 53.9893H33.0146L32.894 54.6716Z" fill="white"/>
<path d="M55.5202 47.8457H34.0987L33.9778 48.5288H55.3993L55.5202 47.8457Z" fill="white"/>
<path d="M56.4626 55.3549H66.9014L68.2252 47.8457H57.7865L56.4626 55.3549Z" fill="white"/>
<path d="M34.4585 45.7984H68.5869L69.9107 38.29H35.7823L34.4585 45.7984Z" fill="white"/>
<path d="M54.7771 64.9102H65.2168L66.541 57.4019H56.1013L54.7771 64.9102Z" fill="white"/>
<path d="M29.383 38.2979L22.9004 75.0631H59.5088C65.4755 75.0631 70.5814 70.7791 71.6183 64.9024L78.1006 28.1382H41.4921C35.5247 28.1382 30.4186 32.4222 29.3826 38.2979H29.383ZM70.3444 64.6776C69.4157 69.9458 64.8591 73.7693 59.5094 73.7693H24.4426L30.6577 38.5221C31.5864 33.2539 36.143 29.4305 41.4926 29.4305H76.5594L70.3444 64.6776Z" fill="white"/>
</svg>
