<svg width="31" height="31" viewBox="0 0 31 31" fill="none" xmlns="http://www.w3.org/2000/svg">
<g clip-path="url(#clip0_852_858)">
<path d="M20.6532 19.8346L20.6532 19.8347L20.665 19.8385C22.1441 20.3154 23.7305 20.5807 25.371 20.5807C25.6455 20.5807 25.8762 20.8162 25.8762 21.0788V25.4282C25.8762 25.663 25.8135 25.8719 25.7234 25.9996C25.6548 26.0968 25.564 26.1658 25.371 26.1658C14.0146 26.1658 4.55371 16.7647 4.55371 5.47124C4.55371 5.34718 4.57974 5.27657 4.60167 5.23636C4.62414 5.19514 4.65896 5.1555 4.71653 5.11723C4.84549 5.03152 5.06178 4.97314 5.31253 4.97314H9.69952C9.97402 4.97314 10.2048 5.2087 10.2048 5.47124C10.2048 7.09685 10.4569 8.67524 10.9512 10.1524C11.0052 10.3289 10.969 10.5187 10.842 10.6637L8.40351 12.7278L7.95962 13.1035L8.21297 13.6269C10.0786 17.4816 13.5671 20.8167 17.3026 22.5885L17.8384 22.8426L18.2092 22.3799L20.1678 19.9363C20.3081 19.8129 20.4924 19.7797 20.6532 19.8346Z" stroke="white" stroke-width="1.5"/>
</g>
<defs>
<clipPath id="clip0_852_858">
<rect width="30.43" height="30.2569" fill="white" transform="translate(0 0.440918)"/>
</clipPath>
</defs>
</svg>
