<svg width="26" height="27" viewBox="0 0 26 27" fill="none" xmlns="http://www.w3.org/2000/svg">
<g clip-path="url(#clip0_852_866)">
<path d="M2.08616 6.32053L1.73214 6.11392C2.08259 5.62742 2.65405 5.30908 3.29993 5.30908H22.8439C23.3942 5.30908 23.8922 5.53957 24.2463 5.90722L23.5607 6.32554L13.0662 12.7287L2.08616 6.32053ZM24.3211 6.75236V5.98945C24.6114 6.32712 24.7869 6.76402 24.7869 7.23819V21.8128C24.7869 22.87 23.9141 23.7419 22.8439 23.7419H3.29993C2.2298 23.7419 1.35704 22.8701 1.35693 21.813C1.35693 21.8129 1.35693 21.8129 1.35693 21.8128L1.36685 9.98311L1.59643 10.1072L12.8342 16.1799L13.0773 16.3113L13.3179 16.1754L24.0671 10.1026L24.3211 9.95909V9.66729V6.75236Z" stroke="white"/>
</g>
<defs>
<clipPath id="clip0_852_866">
<rect width="25.7143" height="25.568" fill="white" transform="translate(0 0.974121)"/>
</clipPath>
</defs>
</svg>
