<svg width="30" height="31" viewBox="0 0 30 31" fill="none" xmlns="http://www.w3.org/2000/svg">
<path d="M15 27.1181C14.7636 26.8453 14.4258 26.4481 14.0202 25.9512C13.2063 24.9541 12.122 23.5583 11.0387 21.9618C9.95448 20.3639 8.87746 18.5742 8.07305 16.7889C7.26566 14.9969 6.75 13.2464 6.75 11.7168C6.75 7.18567 10.4359 3.5166 15 3.5166C19.5641 3.5166 23.25 7.18567 23.25 11.7168C23.25 13.2464 22.7343 14.9969 21.9269 16.7889C21.1225 18.5742 20.0455 20.3639 18.9613 21.9618C17.878 23.5583 16.7937 24.9541 15.9798 25.9512C15.5742 26.4481 15.2364 26.8453 15 27.1181ZM11.375 11.7168C11.375 13.7108 13.0016 15.3241 15 15.3241C16.9984 15.3241 18.625 13.7108 18.625 11.7168C18.625 9.72281 16.9985 8.1096 15 8.1096C13.0016 8.1096 11.375 9.72281 11.375 11.7168Z" stroke="white"/>
</svg>
